<svg width="249" height="117" viewBox="0 0 249 117" fill="none" xmlns="http://www.w3.org/2000/svg">
<path d="M0.600651 62.5196C-0.200217 61.7188 -0.200217 60.4203 0.600651 59.6194L25.0391 35.181C25.7227 36.5726 26.4516 37.6174 26.9295 37.9466C29.2406 39.3358 30.5348 37.854 30.8121 36.7427C30.955 35.8841 30.3131 35.959 29.6949 36.0312C29.1127 36.0992 28.5515 36.1647 28.6859 35.4461C29.1482 31.0934 45.0484 22.4806 56.5114 18.0353C51.0572 27.6668 43.5693 44.985 45.5106 55.0796C46.2502 59.988 54.2927 65.8225 57.898 63.8776C63.4556 59.7947 79.7047 38.8122 85.3629 23.4439L121.538 59.6194C122.339 60.4203 122.339 61.7188 121.538 62.5196L80.181 103.877C85.4806 94.3144 90.1827 83.752 91.8079 79.2389C91.8079 77.2964 88.7477 74.736 86.999 75.5306L87.1223 75.3862C89.2762 72.864 91.6478 70.0868 92.42 67.0546C92.8572 63.0815 89.6221 58.1372 85.9498 57.6957C74.933 56.283 56.9213 70.1448 49.6642 86.2139C41.5327 86.6554 35.5872 84.7129 36.0243 80.7398C36.0243 79.0623 34.0133 78.1794 34.0133 81.0047C34.9751 87.2734 38.9097 93.1889 42.9317 95.1313C44.0684 95.7494 45.3799 96.1026 46.8663 96.1908C46.7789 96.4557 46.7789 96.7206 46.7789 97.0738C46.3417 103.342 54.2108 108.552 58.1454 108.993C61.2931 109.523 69.6869 101.842 74.0586 97.6918C68.0256 107.316 61.6428 115.615 56.4841 116.586C54.9107 116.825 54.6114 116.491 54.3762 116.229C54.35 116.2 54.3246 116.171 54.2983 116.145C54.262 116.129 54.2245 116.116 54.1862 116.105L0.600651 62.5196Z" fill="#FD5956"/>
<path d="M60.6713 11.6451C56.0803 12.167 50.6063 13.3668 45.2913 14.9288L59.6194 0.600651C60.4203 -0.200217 61.7188 -0.200217 62.5196 0.600651L70.3427 8.4237C68.3893 7.31055 64.7551 6.93642 60.6713 11.6451Z" fill="#FD5956"/>
<path d="M67.5121 14.9791C69.908 14.0362 72.6206 11.9824 71.6181 9.69911L78.4455 16.5265C74.6127 31.3297 60.201 54.2316 55.3096 56.0983C54.5701 42.3919 62.4277 24.2402 67.5121 14.9791Z" fill="#FD5956"/>
<path d="M61.1182 84.1832C68.4628 73.6765 81.0534 63.3464 88.1357 64.4942C89.0975 64.759 88.8352 65.7302 88.0482 67.2312C80.966 76.0604 70.7361 81.3579 61.1182 84.1832Z" fill="#FD5956"/>
<path d="M86.0372 76.5901C80.8785 83.212 61.3805 105.903 56.8339 101.665C55.3475 100.341 54.9103 98.2216 55.5224 95.3079C66.102 92.4826 78.5178 84.4481 86.0372 76.5901Z" fill="#FD5956"/>
<path d="M0.600651 62.5196C-0.200217 61.7188 -0.200217 60.4203 0.600651 59.6194L25.0391 35.181C25.7227 36.5726 26.4516 37.6174 26.9295 37.9466C29.2406 39.3358 30.5348 37.854 30.8121 36.7427C30.955 35.8841 30.3131 35.959 29.6949 36.0312C29.1127 36.0992 28.5515 36.1647 28.6859 35.4461C29.1482 31.0934 45.0484 22.4806 56.5114 18.0353C51.0572 27.6668 43.5693 44.985 45.5106 55.0796C46.2502 59.988 54.2927 65.8225 57.898 63.8776C63.4556 59.7947 79.7047 38.8122 85.3629 23.4439L121.538 59.6194C122.339 60.4203 122.339 61.7188 121.538 62.5196L80.181 103.877C85.4806 94.3144 90.1827 83.752 91.8079 79.2389C91.8079 77.2964 88.7477 74.736 86.999 75.5306L87.1223 75.3862C89.2762 72.864 91.6478 70.0868 92.42 67.0546C92.8572 63.0815 89.6221 58.1372 85.9498 57.6957C74.933 56.283 56.9213 70.1448 49.6642 86.2139C41.5327 86.6554 35.5872 84.7129 36.0243 80.7398C36.0243 79.0623 34.0133 78.1794 34.0133 81.0047C34.9751 87.2734 38.9097 93.1889 42.9317 95.1313C44.0684 95.7494 45.3799 96.1026 46.8663 96.1908C46.7789 96.4557 46.7789 96.7206 46.7789 97.0738C46.3417 103.342 54.2108 108.552 58.1454 108.993C61.2931 109.523 69.6869 101.842 74.0586 97.6918C68.0256 107.316 61.6428 115.615 56.4841 116.586C54.9107 116.825 54.6114 116.491 54.3762 116.229C54.35 116.2 54.3246 116.171 54.2983 116.145C54.262 116.129 54.2245 116.116 54.1862 116.105L0.600651 62.5196Z" fill="#FD5956"/>
<path d="M60.6713 11.6451C56.0803 12.167 50.6063 13.3668 45.2913 14.9288L59.6194 0.600651C60.4203 -0.200217 61.7188 -0.200217 62.5196 0.600651L70.3427 8.4237C68.3893 7.31055 64.7551 6.93642 60.6713 11.6451Z" fill="#FD5956"/>
<path d="M67.5121 14.9791C69.908 14.0362 72.6206 11.9824 71.6181 9.69911L78.4455 16.5265C74.6127 31.3297 60.201 54.2316 55.3096 56.0983C54.5701 42.3919 62.4277 24.2402 67.5121 14.9791Z" fill="#FD5956"/>
<path d="M61.1182 84.1832C68.4628 73.6765 81.0534 63.3464 88.1357 64.4942C89.0975 64.759 88.8352 65.7302 88.0482 67.2312C80.966 76.0604 70.7361 81.3579 61.1182 84.1832Z" fill="#FD5956"/>
<path d="M86.0372 76.5901C80.8785 83.212 61.3805 105.903 56.8339 101.665C55.3475 100.341 54.9103 98.2216 55.5224 95.3079C66.102 92.4826 78.5178 84.4481 86.0372 76.5901Z" fill="#FD5956"/>
<path fill-rule="evenodd" clip-rule="evenodd" d="M109.143 13.3002C111.076 8.3784 102.836 6.32765 100.191 7.14795C96.936 7.96825 94.1894 16.7865 99.5809 18.9398C104.26 19.7601 108.228 15.1459 109.143 13.3002ZM103.535 34.8304C107.253 28.5277 111.928 22.3911 114.261 19.8626C115.279 18.8372 122.196 21.1956 121.382 23.1438C121.145 23.8128 119.914 25.9291 118.451 28.4448C116.774 31.3275 114.792 34.7345 113.651 37.0889C119.348 30.0138 132.878 20.0677 135.319 19.7601C137.354 19.4525 141.931 23.2463 140.304 25.7072C139.083 27.2453 129.215 44.4716 129.215 46.4198C129.215 47.3731 139.461 37.9987 143.371 34.3304C147.037 28.2054 151.528 22.3242 153.8 19.8626C154.817 18.8372 161.735 21.1956 160.921 23.1438C160.684 23.8127 159.453 25.9289 157.99 28.4444L157.989 28.4448C156.312 31.3275 154.33 34.7345 153.19 37.0889C158.886 30.0138 172.416 20.0677 174.858 19.7601C176.892 19.4525 181.47 23.2463 179.842 25.7072C178.621 27.2453 168.754 44.4716 168.754 46.4198C168.754 47.5212 182.429 34.8384 184.21 33.0943C186.415 29.1958 189.134 25.1433 192.118 22.0159C195.678 20.6829 199.951 23.554 198.628 25.7072C198.554 25.8418 198.463 26.0064 198.357 26.198C196.284 29.9483 188.495 44.0387 189.269 45.5995C190.083 47.1376 202.291 35.0382 203.511 33.8077C206.767 30.5265 207.987 33.295 204.63 37.8067C203.511 39.6524 190.897 55.5457 187.947 55.5457C185.099 55.8533 178.588 51.2391 178.588 46.1122C178.588 45.8481 178.686 45.3848 178.873 44.7611C174.765 49.5608 169.398 55.3406 167.431 55.3406C164.583 55.6482 158.073 52.0594 158.073 46.9325C158.073 44.8818 163.871 34.628 169.059 28.2707C168.832 28.4536 168.552 28.6745 168.225 28.9323L168.225 28.9325C164.151 32.1434 152.807 41.0841 146.781 53.8025C146.781 54.2127 146.679 55.7508 144.848 55.7508C141.898 55.4431 137.422 50.4188 137.727 47.7528C137.772 47.3085 137.848 46.8423 137.952 46.3573C134.096 50.7524 129.645 55.3406 127.893 55.3406C125.045 55.6482 118.534 52.0594 118.534 46.9325C118.534 44.8818 124.332 34.628 129.521 28.2707C129.294 28.4536 129.013 28.6746 128.686 28.9325C124.612 32.1434 113.269 41.084 107.242 53.8025C107.242 54.2127 107.141 55.7508 105.309 55.7508C102.359 55.4431 97.8834 50.4188 98.1886 47.7528C98.2104 47.5351 98.2398 47.3122 98.2763 47.0844C94.5437 51.3916 90.5095 55.5457 89.0013 55.5457C86.1529 55.8533 79.6424 51.2391 79.6424 46.1122C79.6424 44.0615 85.5426 30.0138 93.1721 22.0159C96.7326 20.6829 101.005 23.554 99.6827 25.7072C99.6085 25.8418 99.5175 26.0064 99.4116 26.198C97.3386 29.9482 89.5495 44.0387 90.3238 45.5995C91.0284 46.9313 100.275 38.0387 103.535 34.8304ZM208.089 13.3002C210.022 8.3784 201.782 6.32765 199.137 7.14795C195.882 7.96825 193.135 16.7865 198.527 18.9398C203.206 19.7601 207.173 15.1459 208.089 13.3002ZM237.924 64.5689C238.437 61.5953 233.617 58.8268 231.977 60.1598C229.618 61.9029 228.696 63.9537 227.978 66.3121C226.298 68.5354 223.475 71.6396 220.967 74.3284C220.541 74.6435 220.047 75.1061 219.482 75.7455C215.381 80.6673 201.948 94.0997 195.899 89.9982C193.13 88.05 193.643 84.5637 194.566 81.6927C195.284 82.9231 198.667 85.4866 201.128 85.179C208.716 84.6663 214.048 74.7201 214.356 70.7212C214.663 66.107 207.486 60.1598 202.974 60.775C197.058 61.4416 188.501 70.0303 185.502 79.058C181.183 83.0883 174.913 88.7391 174.146 88.4602C172.505 87.6399 182.349 70.311 183.989 68.6704C186.245 66.7222 180.811 62.2105 178.862 62.2105C175.684 62.2105 165.327 70.311 157.842 78.6166C159.225 75.914 161.879 71.7089 163.797 68.6697L163.797 68.6696C165.008 66.7507 165.926 65.2966 166.045 64.9791C166.558 63.3385 163.072 59.9547 161.021 59.9547C156.919 59.9547 145.743 70.7212 140.001 77.7963C141.124 75.4963 142.61 72.7778 143.847 70.5141L143.847 70.514C144.982 68.4381 145.908 66.7446 146.153 66.107C146.973 64.1588 140.001 61.8004 138.975 62.8258C136.568 65.4137 132.147 71.2162 128.574 77.289C126.196 79.8005 123.553 82.2138 122.616 82.6155C123.949 79.9495 125.589 74.7201 125.589 72.1567C125.897 67.44 120.257 62.5182 116.463 61.6979C111.439 60.8776 107.235 64.8765 105.492 67.1324C105.309 67.201 105.085 67.2595 104.825 67.3272C103.924 67.5625 102.596 67.9088 101.083 69.1831C97.5965 72.1567 93.2899 79.1292 92.9823 86.6145C92.6747 91.8439 99.5447 97.6885 103.031 97.9962C108.055 98.4063 114.31 94.8175 118.719 89.383C119.927 88.9803 122 87.8857 124.186 86.2933C123.787 87.4138 123.48 88.4857 123.287 89.4855C122.774 92.049 127.696 97.4835 130.567 97.7911C132.011 97.7911 132.216 96.89 132.35 96.2982C132.397 96.0915 132.436 95.9225 132.515 95.8429C139.13 83.6878 148.413 74.7334 153.318 70.0013C154.495 68.8653 155.421 67.9726 155.996 67.3374C148.716 75.4379 145.23 83.3333 145.23 85.2815C145.23 89.383 149.331 92.8693 152.51 93.382C153.491 93.5782 153.68 93.1902 154.087 92.3509C154.318 91.8747 154.619 91.2533 155.176 90.5109C161.226 81.7952 167.481 75.3354 174.556 69.2856C167.276 77.3861 163.379 87.0246 163.379 88.9729C163.379 94.0997 169.942 97.6885 172.813 97.3809C174.794 97.3809 180.393 91.2532 184.51 86.4268C185.454 92.1745 193.155 97.586 196.617 97.586C202.296 97.7673 208.545 92.8929 213.623 87.7252C214.03 93.4699 218.355 98.9587 225.927 98.6114C234.335 98.3038 244.076 85.0764 248.075 78.4115C250.228 74.6176 248.28 74.0024 245.717 76.3607C244.897 77.0272 244.358 77.5655 243.653 78.2705C242.948 78.9754 242.077 79.847 240.59 81.18C239.889 79.1642 238.757 77.0921 237.69 75.14C236.262 72.5245 234.95 70.1243 234.95 68.3628C235.5 67.7097 235.981 67.2065 236.389 66.7796C237.198 65.933 237.719 65.3869 237.924 64.5689ZM229.07 80.2686C230.154 85.2129 231.027 89.1927 228.285 89.8957C223.364 91.2287 219.775 84.6663 221.21 80.1546L227.773 73.0795C228.031 75.53 228.573 78.0008 229.07 80.2686ZM107.953 75.5404C109.593 70.311 114.105 65.7994 116.566 67.1324C118.822 68.5679 116.156 78.514 111.747 84.051C106.825 83.7434 106.927 79.0267 107.953 75.5404ZM108.568 88.2551C106.21 91.0236 102.416 92.2541 100.775 90.3058C99.7498 88.9729 100.365 83.3333 102.518 81.18C104.056 85.6917 107.953 87.9475 108.568 88.2551ZM206.973 67.1324C203.897 67.44 196.617 76.6683 195.796 79.1292C201.333 81.4876 209.536 67.1324 206.973 67.1324Z" fill="black"/>
</svg>
